# xmcd
#
# Track frame offsets: 
#        150
#        21974
#        48349
#        67253
#        88316
#        109162
#        126557
#        146949
#        168532
#        191044
#        216097
#        236108
#
# Disc length: 3426 seconds
#
# Revision: 3
# Processed by: cddbd v1.5.2PL0 Copyright (c) Steve Scherf et al.
# Submitted via: ExactAudioCopy v0.99pb5
#
DISCID=c50d600c
DTITLE=Thomas  Anders - Different
DYEAR=1997
DGENRE=Pop
TTITLE0=Love  Of  My  Own
TTITLE1=On  My  Way
TTITLE2=Turn  On  The  Light
TTITLE3=Living  On  The  Edge
TTITLE4=You  Are  My  Life
TTITLE5=One  Thing
TTITLE6=Soldier
TTITLE7=Someone  New
TTITLE8=Close  You' r  Eye' s  To  Heaven
TTITLE9=Fool  If  You  Think  It' s  Over
TTITLE10=True  Love
TTITLE11=You  Are  My  Life  ( Classical  Mix )
EXTD=
EXTT0=
EXTT1=
EXTT2=
EXTT3=
EXTT4=
EXTT5=
EXTT6=
EXTT7=
EXTT8=
EXTT9=
EXTT10=
EXTT11=
PLAYORDER=
